<?xml version="1.0" encoding="UTF-8"?>
<svg xmlns="http://www.w3.org/2000/svg" width="210mm" height="297mm"
     viewBox="0 0 210 297">
  <rect width="210" height="297" fill="#ffffff"/>
  <text x="105" y="21" text-anchor="middle"
        font-family="Helvetica,Arial,sans-serif" font-size="7.5" font-weight="bold"
        fill="#16123a">MEDICINE LUDO</text>
  <text x="105" y="26.5" text-anchor="middle"
        font-family="Helvetica,Arial,sans-serif" font-size="3.4" fill="#16123a" fill-opacity="0.65">
    Roll the die · answer the card · race home — standard board, A4
  </text>
<rect x="135.33" y="32" width="60.67" height="60.67" rx="3.64"
         fill="#e11d48" stroke="#16123a" stroke-width="0.9"/>
<rect x="145.65" y="42.31" width="40.04"
         height="40.04" rx="2.43" fill="#fffdf5" stroke="#16123a" stroke-width="0.6"/>
<circle cx="157.17" cy="57.48" r="6.37"
           fill="none" stroke="#e11d48" stroke-width="0.8" stroke-dasharray="1.6 1.2"/>
<circle cx="174.16" cy="57.48" r="6.37"
           fill="none" stroke="#e11d48" stroke-width="0.8" stroke-dasharray="1.6 1.2"/>
<text x="165.67" y="78.11" text-anchor="middle"
         font-family="Helvetica,Arial,sans-serif" font-size="6.07" font-weight="bold"
         fill="#e11d48">RED</text>
<rect x="135.33" y="153.33" width="60.67" height="60.67" rx="3.64"
         fill="#0891b2" stroke="#16123a" stroke-width="0.9"/>
<rect x="145.65" y="163.65" width="40.04"
         height="40.04" rx="2.43" fill="#fffdf5" stroke="#16123a" stroke-width="0.6"/>
<circle cx="157.17" cy="178.81" r="6.37"
           fill="none" stroke="#0891b2" stroke-width="0.8" stroke-dasharray="1.6 1.2"/>
<circle cx="174.16" cy="178.81" r="6.37"
           fill="none" stroke="#0891b2" stroke-width="0.8" stroke-dasharray="1.6 1.2"/>
<text x="165.67" y="199.44" text-anchor="middle"
         font-family="Helvetica,Arial,sans-serif" font-size="6.07" font-weight="bold"
         fill="#0891b2">CYAN</text>
<rect x="14" y="153.33" width="60.67" height="60.67" rx="3.64"
         fill="#16a34a" stroke="#16123a" stroke-width="0.9"/>
<rect x="24.31" y="163.65" width="40.04"
         height="40.04" rx="2.43" fill="#fffdf5" stroke="#16123a" stroke-width="0.6"/>
<circle cx="35.84" cy="178.81" r="6.37"
           fill="none" stroke="#16a34a" stroke-width="0.8" stroke-dasharray="1.6 1.2"/>
<circle cx="52.83" cy="178.81" r="6.37"
           fill="none" stroke="#16a34a" stroke-width="0.8" stroke-dasharray="1.6 1.2"/>
<text x="44.33" y="199.44" text-anchor="middle"
         font-family="Helvetica,Arial,sans-serif" font-size="6.07" font-weight="bold"
         fill="#16a34a">GREEN</text>
<rect x="14" y="32" width="60.67" height="60.67" rx="3.64"
         fill="#f59e0b" stroke="#16123a" stroke-width="0.9"/>
<rect x="24.31" y="42.31" width="40.04"
         height="40.04" rx="2.43" fill="#fffdf5" stroke="#16123a" stroke-width="0.6"/>
<circle cx="35.84" cy="57.48" r="6.37"
           fill="none" stroke="#f59e0b" stroke-width="0.8" stroke-dasharray="1.6 1.2"/>
<circle cx="52.83" cy="57.48" r="6.37"
           fill="none" stroke="#f59e0b" stroke-width="0.8" stroke-dasharray="1.6 1.2"/>
<text x="44.33" y="78.11" text-anchor="middle"
         font-family="Helvetica,Arial,sans-serif" font-size="6.07" font-weight="bold"
         fill="#f59e0b">AMBER</text>
<rect x="74.67" y="72.44" width="20.22" height="20.22"
         fill="#ffffff" stroke="#16123a" stroke-width="0.7"/>
<polygon points="84.78,77.3 88.33,86.43 84.78,84.4 81.23,86.43"
           fill="#16123a" fill-opacity="0.3"/>
<rect x="74.67" y="52.22" width="20.22" height="20.22"
         fill="#ffffff" stroke="#16123a" stroke-width="0.7"/>
<polygon points="84.78,57.08 88.33,66.21 84.78,64.17 81.23,66.21"
           fill="#16123a" fill-opacity="0.3"/>
<rect x="74.67" y="32" width="20.22" height="20.22"
         fill="#ffffff" stroke="#16123a" stroke-width="0.7"/>
<polygon points="90.04,42.11 80.9,45.66 82.94,42.11 80.9,38.56"
           fill="#16123a" fill-opacity="0.3"/>
<rect x="94.89" y="32" width="20.22" height="20.22"
         fill="#ffffff" stroke="#16123a" stroke-width="0.7"/>
<rect x="94.89" y="32" width="20.22" height="20.22"
           fill="#e11d48" fill-opacity="0.28" stroke="#16123a" stroke-width="0.7"/>
<polygon points="105,48.18 100.9,37.64 105,39.99 109.1,37.64"
           fill="#e11d48"/>
<rect x="115.11" y="32" width="20.22" height="20.22"
         fill="#e11d48" stroke="#16123a" stroke-width="0.7"/>
<polygon points="125.22,35.24 126.72,39.24 130.99,39.43 127.65,42.09 128.79,46.21 125.22,43.85 121.66,46.21 122.8,42.09 119.45,39.43 123.72,39.24" fill="#ffffff" fill-opacity="0.95"/>
<text x="125.22" y="49.8" text-anchor="middle"
           font-family="Helvetica,Arial,sans-serif" font-size="3.44" font-weight="bold"
           fill="#ffffff">START</text>
<rect x="115.11" y="52.22" width="20.22" height="20.22"
         fill="#ffffff" stroke="#16123a" stroke-width="0.7"/>
<polygon points="125.22,67.59 121.67,58.46 125.22,60.49 128.77,58.46"
           fill="#16123a" fill-opacity="0.3"/>
<rect x="115.11" y="72.44" width="20.22" height="20.22"
         fill="#ffffff" stroke="#16123a" stroke-width="0.7"/>
<polygon points="128.94,86.27 119.97,82.33 123.92,81.25 124.99,77.3"
           fill="#16123a" fill-opacity="0.3"/>
<rect x="135.33" y="92.67" width="20.22" height="20.22"
         fill="#ffffff" stroke="#16123a" stroke-width="0.7"/>
<polygon points="150.7,102.78 141.57,106.33 143.6,102.78 141.57,99.23"
           fill="#16123a" fill-opacity="0.3"/>
<rect x="155.56" y="92.67" width="20.22" height="20.22"
         fill="#ffffff" stroke="#16123a" stroke-width="0.7"/>
<polygon points="170.92,102.78 161.79,106.33 163.83,102.78 161.79,99.23"
           fill="#16123a" fill-opacity="0.3"/>
<rect x="175.78" y="92.67" width="20.22" height="20.22"
         fill="#ffffff" stroke="#16123a" stroke-width="0.7"/>
<polygon points="185.89,108.04 182.34,98.9 185.89,100.94 189.44,98.9"
           fill="#16123a" fill-opacity="0.3"/>
<rect x="175.78" y="112.89" width="20.22" height="20.22"
         fill="#ffffff" stroke="#16123a" stroke-width="0.7"/>
<rect x="175.78" y="112.89" width="20.22" height="20.22"
           fill="#0891b2" fill-opacity="0.28" stroke="#16123a" stroke-width="0.7"/>
<polygon points="179.82,123 190.36,118.9 188.01,123 190.36,127.1"
           fill="#0891b2"/>
<rect x="175.78" y="133.11" width="20.22" height="20.22"
         fill="#0891b2" stroke="#16123a" stroke-width="0.7"/>
<polygon points="185.89,136.35 187.39,140.35 191.66,140.54 188.31,143.2 189.45,147.32 185.89,144.96 182.32,147.32 183.47,143.2 180.12,140.54 184.39,140.35" fill="#ffffff" fill-opacity="0.95"/>
<text x="185.89" y="150.91" text-anchor="middle"
           font-family="Helvetica,Arial,sans-serif" font-size="3.44" font-weight="bold"
           fill="#ffffff">START</text>
<rect x="155.56" y="133.11" width="20.22" height="20.22"
         fill="#ffffff" stroke="#16123a" stroke-width="0.7"/>
<polygon points="160.41,143.22 169.54,139.67 167.51,143.22 169.54,146.77"
           fill="#16123a" fill-opacity="0.3"/>
<rect x="135.33" y="133.11" width="20.22" height="20.22"
         fill="#ffffff" stroke="#16123a" stroke-width="0.7"/>
<polygon points="141.73,146.94 145.67,137.97 146.75,141.92 150.7,142.99"
           fill="#16123a" fill-opacity="0.3"/>
<rect x="115.11" y="153.33" width="20.22" height="20.22"
         fill="#ffffff" stroke="#16123a" stroke-width="0.7"/>
<polygon points="125.22,168.7 121.67,159.57 125.22,161.6 128.77,159.57"
           fill="#16123a" fill-opacity="0.3"/>
<rect x="115.11" y="173.56" width="20.22" height="20.22"
         fill="#ffffff" stroke="#16123a" stroke-width="0.7"/>
<polygon points="125.22,188.92 121.67,179.79 125.22,181.83 128.77,179.79"
           fill="#16123a" fill-opacity="0.3"/>
<rect x="115.11" y="193.78" width="20.22" height="20.22"
         fill="#ffffff" stroke="#16123a" stroke-width="0.7"/>
<polygon points="119.96,203.89 129.1,200.34 127.06,203.89 129.1,207.44"
           fill="#16123a" fill-opacity="0.3"/>
<rect x="94.89" y="193.78" width="20.22" height="20.22"
         fill="#ffffff" stroke="#16123a" stroke-width="0.7"/>
<rect x="94.89" y="193.78" width="20.22" height="20.22"
           fill="#16a34a" fill-opacity="0.28" stroke="#16123a" stroke-width="0.7"/>
<polygon points="105,197.82 109.1,208.36 105,206.01 100.9,208.36"
           fill="#16a34a"/>
<rect x="74.67" y="193.78" width="20.22" height="20.22"
         fill="#16a34a" stroke="#16123a" stroke-width="0.7"/>
<polygon points="84.78,197.01 86.28,201.02 90.55,201.21 87.2,203.87 88.34,207.99 84.78,205.63 81.21,207.99 82.35,203.87 79.01,201.21 83.28,201.02" fill="#ffffff" fill-opacity="0.95"/>
<text x="84.78" y="211.57" text-anchor="middle"
           font-family="Helvetica,Arial,sans-serif" font-size="3.44" font-weight="bold"
           fill="#ffffff">START</text>
<rect x="74.67" y="173.56" width="20.22" height="20.22"
         fill="#ffffff" stroke="#16123a" stroke-width="0.7"/>
<polygon points="84.78,178.41 88.33,187.54 84.78,185.51 81.23,187.54"
           fill="#16123a" fill-opacity="0.3"/>
<rect x="74.67" y="153.33" width="20.22" height="20.22"
         fill="#ffffff" stroke="#16123a" stroke-width="0.7"/>
<polygon points="81.06,159.73 90.03,163.67 86.08,164.75 85.01,168.7"
           fill="#16123a" fill-opacity="0.3"/>
<rect x="54.44" y="133.11" width="20.22" height="20.22"
         fill="#ffffff" stroke="#16123a" stroke-width="0.7"/>
<polygon points="59.3,143.22 68.43,139.67 66.4,143.22 68.43,146.77"
           fill="#16123a" fill-opacity="0.3"/>
<rect x="34.22" y="133.11" width="20.22" height="20.22"
         fill="#ffffff" stroke="#16123a" stroke-width="0.7"/>
<polygon points="39.08,143.22 48.21,139.67 46.17,143.22 48.21,146.77"
           fill="#16123a" fill-opacity="0.3"/>
<rect x="14" y="133.11" width="20.22" height="20.22"
         fill="#ffffff" stroke="#16123a" stroke-width="0.7"/>
<polygon points="24.11,137.96 27.66,147.1 24.11,145.06 20.56,147.1"
           fill="#16123a" fill-opacity="0.3"/>
<rect x="14" y="112.89" width="20.22" height="20.22"
         fill="#ffffff" stroke="#16123a" stroke-width="0.7"/>
<rect x="14" y="112.89" width="20.22" height="20.22"
           fill="#f59e0b" fill-opacity="0.28" stroke="#16123a" stroke-width="0.7"/>
<polygon points="30.18,123 19.64,127.1 21.99,123 19.64,118.9"
           fill="#f59e0b"/>
<rect x="14" y="92.67" width="20.22" height="20.22"
         fill="#f59e0b" stroke="#16123a" stroke-width="0.7"/>
<polygon points="24.11,95.9 25.61,99.91 29.88,100.09 26.53,102.76 27.68,106.88 24.11,104.52 20.55,106.88 21.69,102.76 18.34,100.09 22.61,99.91" fill="#ffffff" fill-opacity="0.95"/>
<text x="24.11" y="110.46" text-anchor="middle"
           font-family="Helvetica,Arial,sans-serif" font-size="3.44" font-weight="bold"
           fill="#ffffff">START</text>
<rect x="34.22" y="92.67" width="20.22" height="20.22"
         fill="#ffffff" stroke="#16123a" stroke-width="0.7"/>
<polygon points="49.59,102.78 40.46,106.33 42.49,102.78 40.46,99.23"
           fill="#16123a" fill-opacity="0.3"/>
<rect x="54.44" y="92.67" width="20.22" height="20.22"
         fill="#ffffff" stroke="#16123a" stroke-width="0.7"/>
<polygon points="68.27,99.06 64.33,108.03 63.25,104.08 59.3,103.01"
           fill="#16123a" fill-opacity="0.3"/>
<rect x="94.89" y="52.22" width="20.22" height="20.22"
           fill="#e11d48" stroke="#16123a" stroke-width="0.7"/>
<polygon points="105,67.59 101.45,58.46 105,60.49 108.55,58.46"
           fill="#ffffff" fill-opacity="0.75"/>
<rect x="94.89" y="72.44" width="20.22" height="20.22"
           fill="#e11d48" stroke="#16123a" stroke-width="0.7"/>
<polygon points="105,87.81 101.45,78.68 105,80.72 108.55,78.68"
           fill="#ffffff" fill-opacity="0.75"/>
<rect x="155.56" y="112.89" width="20.22" height="20.22"
           fill="#0891b2" stroke="#16123a" stroke-width="0.7"/>
<polygon points="160.41,123 169.54,119.45 167.51,123 169.54,126.55"
           fill="#ffffff" fill-opacity="0.75"/>
<rect x="135.33" y="112.89" width="20.22" height="20.22"
           fill="#0891b2" stroke="#16123a" stroke-width="0.7"/>
<polygon points="140.19,123 149.32,119.45 147.28,123 149.32,126.55"
           fill="#ffffff" fill-opacity="0.75"/>
<rect x="94.89" y="173.56" width="20.22" height="20.22"
           fill="#16a34a" stroke="#16123a" stroke-width="0.7"/>
<polygon points="105,178.41 108.55,187.54 105,185.51 101.45,187.54"
           fill="#ffffff" fill-opacity="0.75"/>
<rect x="94.89" y="153.33" width="20.22" height="20.22"
           fill="#16a34a" stroke="#16123a" stroke-width="0.7"/>
<polygon points="105,158.19 108.55,167.32 105,165.28 101.45,167.32"
           fill="#ffffff" fill-opacity="0.75"/>
<rect x="34.22" y="112.89" width="20.22" height="20.22"
           fill="#f59e0b" stroke="#16123a" stroke-width="0.7"/>
<polygon points="49.59,123 40.46,126.55 42.49,123 40.46,119.45"
           fill="#ffffff" fill-opacity="0.75"/>
<rect x="54.44" y="112.89" width="20.22" height="20.22"
           fill="#f59e0b" stroke="#16123a" stroke-width="0.7"/>
<polygon points="69.81,123 60.68,126.55 62.72,123 60.68,119.45"
           fill="#ffffff" fill-opacity="0.75"/>
<polygon points="74.67,92.67 135.33,92.67 105,123" fill="#e11d48" stroke="#16123a" stroke-width="0.7"/>
<polygon points="135.33,92.67 135.33,153.33 105,123" fill="#0891b2" stroke="#16123a" stroke-width="0.7"/>
<polygon points="135.33,153.33 74.67,153.33 105,123" fill="#16a34a" stroke="#16123a" stroke-width="0.7"/>
<polygon points="74.67,153.33 74.67,92.67 105,123" fill="#f59e0b" stroke="#16123a" stroke-width="0.7"/>
<rect x="87.81" y="116.93" width="34.38"
       height="12.13" rx="2.83" fill="#ffffff" stroke="#16123a" stroke-width="0.8"/>
<text x="105" y="125.63" text-anchor="middle"
       font-family="Helvetica,Arial,sans-serif" font-size="6.47" font-weight="bold"
       fill="#16123a">HOME</text>
<rect x="14" y="32" width="182" height="182"
       fill="none" stroke="#16123a" stroke-width="1.6"/>
<text x="14" y="226" font-family="Helvetica,Arial,sans-serif"
       font-size="4" font-weight="bold" fill="#16123a">THE NUMBER YOU ROLL IS ALSO THE DIFFICULTY OF THE CARD</text>
<rect x="14" y="231" width="27.83" height="16" rx="1.8"
         fill="none" stroke="#16123a" stroke-width="0.7"/>
<text x="27.92" y="238" text-anchor="middle" font-family="Helvetica,Arial,sans-serif"
         font-size="6" font-weight="bold" fill="#16123a">1</text>
<text x="27.92" y="242.2" text-anchor="middle" font-family="Helvetica,Arial,sans-serif"
         font-size="2.9" fill="#16123a">Easy</text>
<text x="27.92" y="245.6" text-anchor="middle" font-family="Helvetica,Arial,sans-serif"
         font-size="2.6" fill="#16123a" fill-opacity="0.65">10 pts · 20s</text>
<rect x="44.33" y="231" width="27.83" height="16" rx="1.8"
         fill="none" stroke="#16123a" stroke-width="0.7"/>
<text x="58.25" y="238" text-anchor="middle" font-family="Helvetica,Arial,sans-serif"
         font-size="6" font-weight="bold" fill="#16123a">2</text>
<text x="58.25" y="242.2" text-anchor="middle" font-family="Helvetica,Arial,sans-serif"
         font-size="2.9" fill="#16123a">Mid Easy</text>
<text x="58.25" y="245.6" text-anchor="middle" font-family="Helvetica,Arial,sans-serif"
         font-size="2.6" fill="#16123a" fill-opacity="0.65">20 pts · 25s</text>
<rect x="74.67" y="231" width="27.83" height="16" rx="1.8"
         fill="none" stroke="#16123a" stroke-width="0.7"/>
<text x="88.58" y="238" text-anchor="middle" font-family="Helvetica,Arial,sans-serif"
         font-size="6" font-weight="bold" fill="#16123a">3</text>
<text x="88.58" y="242.2" text-anchor="middle" font-family="Helvetica,Arial,sans-serif"
         font-size="2.9" fill="#16123a">Medium</text>
<text x="88.58" y="245.6" text-anchor="middle" font-family="Helvetica,Arial,sans-serif"
         font-size="2.6" fill="#16123a" fill-opacity="0.65">30 pts · 30s</text>
<rect x="105" y="231" width="27.83" height="16" rx="1.8"
         fill="none" stroke="#16123a" stroke-width="0.7"/>
<text x="118.92" y="238" text-anchor="middle" font-family="Helvetica,Arial,sans-serif"
         font-size="6" font-weight="bold" fill="#16123a">4</text>
<text x="118.92" y="242.2" text-anchor="middle" font-family="Helvetica,Arial,sans-serif"
         font-size="2.9" fill="#16123a">Mid Medium</text>
<text x="118.92" y="245.6" text-anchor="middle" font-family="Helvetica,Arial,sans-serif"
         font-size="2.6" fill="#16123a" fill-opacity="0.65">40 pts · 30s</text>
<rect x="135.33" y="231" width="27.83" height="16" rx="1.8"
         fill="none" stroke="#16123a" stroke-width="0.7"/>
<text x="149.25" y="238" text-anchor="middle" font-family="Helvetica,Arial,sans-serif"
         font-size="6" font-weight="bold" fill="#16123a">5</text>
<text x="149.25" y="242.2" text-anchor="middle" font-family="Helvetica,Arial,sans-serif"
         font-size="2.9" fill="#16123a">Difficult</text>
<text x="149.25" y="245.6" text-anchor="middle" font-family="Helvetica,Arial,sans-serif"
         font-size="2.6" fill="#16123a" fill-opacity="0.65">50 pts · 40s</text>
<rect x="165.67" y="231" width="27.83" height="16" rx="1.8"
         fill="none" stroke="#16123a" stroke-width="0.7"/>
<text x="179.58" y="238" text-anchor="middle" font-family="Helvetica,Arial,sans-serif"
         font-size="6" font-weight="bold" fill="#16123a">6</text>
<text x="179.58" y="242.2" text-anchor="middle" font-family="Helvetica,Arial,sans-serif"
         font-size="2.9" fill="#16123a">Very Difficult</text>
<text x="179.58" y="245.6" text-anchor="middle" font-family="Helvetica,Arial,sans-serif"
         font-size="2.6" fill="#16123a" fill-opacity="0.65">60 pts · 45s</text>
<text x="14" y="254" font-family="Helvetica,Arial,sans-serif"
           font-size="3.2" fill="#16123a">ROLL — the die gives both your distance and your card. Answer right and move forward by the roll; answer wrong</text>
<text x="14" y="258.3" font-family="Helvetica,Arial,sans-serif"
           font-size="3.2" fill="#16123a">and move back half the roll, rounded down, never past your own START.</text>
<text x="14" y="264.2" font-family="Helvetica,Arial,sans-serif"
           font-size="3.2" fill="#16123a">PIECES — both of yours begin on your START square. Land on a square holding only opponents and they go back to</text>
<text x="14" y="268.5" font-family="Helvetica,Arial,sans-serif"
           font-size="3.2" fill="#16123a">their own START. The four ★ START squares are safe: nothing is captured there.</text>
<text x="14" y="274.4" font-family="Helvetica,Arial,sans-serif"
           font-size="3.2" fill="#16123a">WINNING — roll a 6 and answer correctly to go again, at most twice running. First player to get both pieces HOME</text>
<text x="14" y="278.7" font-family="Helvetica,Arial,sans-serif"
           font-size="3.2" fill="#16123a">wins; in 2v2 it is the first team with two pieces home between the partners.</text>
<text x="14" y="285.6" font-family="Helvetica,Arial,sans-serif"
       font-size="2.7" fill="#16123a" fill-opacity="0.55">9x9 · track 28 squares · home column 2 · 20.22mm cells — print at 100%, do NOT "fit to page" · medicine-ludo.charindith.workers.dev</text>
</svg>